<?xml version="1.0" standalone="no"?>
<!DOCTYPE svg PUBLIC "-//W3C//DTD SVG 20010904//EN"
 "http://www.w3.org/TR/2001/REC-SVG-20010904/DTD/svg10.dtd">
<svg version="1.0" xmlns="http://www.w3.org/2000/svg"
 width="225.000000pt" height="225.000000pt" viewBox="0 0 225.000000 225.000000"
 preserveAspectRatio="xMidYMid meet">

<g transform="translate(0.000000,225.000000) scale(0.100000,-0.100000)"
fill="#000000" stroke="none">
<path d="M115 1675 c-47 -17 -100 -73 -109 -117 -10 -53 -7 -950 4 -990 13
-45 77 -105 122 -113 18 -3 452 -5 964 -3 l931 3 36 28 c75 57 72 34 72 587 0
534 1 524 -53 573 -51 46 -44 46 -1012 46 -760 0 -922 -2 -955 -14z m1890
-120 l25 -24 0 -459 c0 -450 0 -460 -21 -486 l-20 -26 -920 0 c-906 0 -919 0
-939 20 -19 19 -20 33 -20 489 l0 470 26 20 c27 21 31 21 936 21 l909 0 24
-25z"/>
<path d="M246 1444 c-21 -21 -20 -57 2 -77 29 -26 155 -24 182 3 25 25 26 52
2 73 -26 23 -164 24 -186 1z"/>
<path d="M574 1435 c-21 -33 -6 -72 31 -81 50 -13 86 53 49 90 -24 24 -61 20
-80 -9z"/>
<path d="M806 1444 c-22 -21 -20 -57 4 -79 46 -41 116 29 75 75 -22 24 -58 26
-79 4z"/>
<path d="M1024 1435 c-21 -33 -6 -72 31 -81 50 -13 86 53 49 90 -24 24 -61 20
-80 -9z"/>
<path d="M1256 1444 c-22 -21 -20 -57 4 -79 46 -41 116 29 75 75 -22 24 -58
26 -79 4z"/>
<path d="M1475 1436 c-35 -53 34 -115 79 -70 23 22 20 71 -3 84 -32 16 -59 12
-76 -14z"/>
<path d="M1706 1444 c-21 -21 -20 -57 2 -77 28 -25 163 -24 185 1 21 23 22 56
1 76 -11 12 -36 16 -94 16 -58 0 -83 -4 -94 -16z"/>
<path d="M252 1224 c-24 -17 -30 -62 -10 -82 8 -8 57 -12 155 -12 130 0 143 2
153 19 16 31 12 59 -12 75 -17 12 -50 16 -143 16 -93 0 -126 -4 -143 -16z"/>
<path d="M702 1224 c-24 -17 -30 -62 -10 -82 37 -37 113 12 88 57 -9 17 -39
41 -52 41 -2 0 -14 -7 -26 -16z"/>
<path d="M920 1220 c-25 -25 -26 -52 -2 -73 37 -34 92 -11 92 38 0 24 -33 55
-57 55 -7 0 -22 -9 -33 -20z"/>
<path d="M1152 1224 c-24 -17 -30 -62 -10 -82 37 -37 113 12 88 57 -9 17 -39
41 -52 41 -2 0 -14 -7 -26 -16z"/>
<path d="M1370 1220 c-25 -25 -26 -52 -2 -73 37 -34 92 -11 92 38 0 24 -33 55
-57 55 -7 0 -22 -9 -33 -20z"/>
<path d="M1602 1224 c-24 -17 -30 -62 -10 -82 37 -37 113 12 88 57 -9 17 -39
41 -52 41 -2 0 -14 -7 -26 -16z"/>
<path d="M1820 1220 c-17 -17 -20 -33 -20 -115 l0 -95 -155 0 c-151 0 -155 0
-170 -24 -18 -27 -7 -69 20 -80 9 -3 99 -6 199 -6 164 0 185 2 199 18 14 15
17 42 17 155 0 129 -1 137 -22 151 -30 21 -44 20 -68 -4z"/>
<path d="M246 994 c-21 -21 -20 -57 2 -77 16 -15 45 -17 204 -17 166 0 187 2
201 18 21 23 22 56 1 76 -23 24 -385 24 -408 0z"/>
<path d="M806 994 c-22 -21 -20 -57 4 -79 46 -41 116 29 75 75 -22 24 -58 26
-79 4z"/>
<path d="M1024 985 c-21 -33 -6 -72 31 -81 50 -13 86 53 49 90 -24 24 -61 20
-80 -9z"/>
<path d="M1257 992 c-23 -25 -21 -55 3 -77 46 -41 116 29 75 75 -23 25 -57 26
-78 2z"/>
<path d="M253 775 c-25 -18 -31 -63 -11 -83 19 -19 173 -16 192 4 20 19 20 44
2 69 -20 27 -150 34 -183 10z"/>
<path d="M598 779 c-32 -18 -41 -48 -23 -75 l15 -24 365 0 c317 0 366 2 379
16 20 19 20 44 2 70 -14 18 -31 19 -368 21 -229 2 -359 -1 -370 -8z"/>
<path d="M1498 779 c-32 -18 -41 -48 -23 -75 14 -22 21 -24 100 -24 79 0 86 2
100 24 19 28 9 58 -25 76 -24 13 -130 13 -152 -1z"/>
</g>
</svg>
